<?xml version="1.0" encoding="iso-8859-1"?>
<!-- Generator: Adobe Illustrator 18.0.0, SVG Export Plug-In . SVG Version: 6.00 Build 0)  -->
<!DOCTYPE svg PUBLIC "-//W3C//DTD SVG 1.1//EN" "http://www.w3.org/Graphics/SVG/1.1/DTD/svg11.dtd">
<svg version="1.1" id="Capa_1" xmlns="http://www.w3.org/2000/svg" xmlns:xlink="http://www.w3.org/1999/xlink" x="0px" y="0px"
	 viewBox="0 0 230.421 230.421" style="enable-background:new 0 0 230.421 230.421;" xml:space="preserve">
<g>
	<path d="M229.308,29.474c-1.029-1.271-2.617-1.954-4.244-1.842L48.782,40.274c-2.089,0.15-3.863,1.586-4.445,3.598L34.294,78.576
		c-0.458,1.582-0.107,3.288,0.937,4.561c0.654,0.796,1.528,1.352,2.491,1.628c0.024,0.007,0.044,0.02,0.068,0.027l13.588,3.932
		l-17.049,1.362c-2.073,0.166-3.827,1.597-4.405,3.595l-15.739,54.391c-0.457,1.576-0.11,3.276,0.927,4.548
		c0.954,1.17,2.38,1.841,3.875,1.841c0.13,0,0.262-0.005,0.393-0.016l27.051-2.13l16.841,4.873l-49.248,3.286
		c-2.074,0.138-3.847,1.546-4.451,3.536s0.086,4.146,1.733,5.414l12.901,9.938L2.277,193.608c-1.909,1.24-2.739,3.612-2.021,5.772
		c0.684,2.053,2.603,3.421,4.742,3.421c0.111,0,0.223-0.003,0.335-0.011l176.022-11.744c2.099-0.14,3.885-1.579,4.47-3.599
		l9.356-32.336c0.454-1.566,0.114-3.255-0.908-4.525c-0.657-0.815-1.542-1.391-2.523-1.671c-0.034-0.013-0.063-0.034-0.097-0.046
		l-18.558-6.525l22.933-1.805c2.075-0.163,3.832-1.595,4.41-3.595l15.798-54.595c0.457-1.577,0.109-3.278-0.929-4.551
		c-1.039-1.273-2.634-1.949-4.272-1.823l-29.598,2.364L166.791,74.1l49.721-4.238c2.062-0.176,3.803-1.604,4.378-3.592l9.334-32.26
		C230.679,32.439,230.337,30.745,229.308,29.474z M23.829,191.534l11.747-7.63c1.36-0.883,2.207-2.372,2.272-3.992
		c0.065-1.621-0.66-3.172-1.945-4.162l-8.019-6.177l155.709-10.388l-6.4,22.117L23.829,191.534z M92.507,155.239l-17.795-5.149
		l73.752-5.807l17.267,6.071L92.507,155.239z M148.828,134.224c-0.01,0.001-0.02,0.002-0.029,0.002l-123,9.684l12.77-44.13
		L204.62,86.519l-12.825,44.322L148.828,134.224z M79.572,86.473l-13.184-3.815l72.612-6.189l14.243,4.121L79.572,86.473z
		 M45.923,74.366l7.051-24.367L218.625,38.12l-6.386,22.07L45.923,74.366z"/>
</g>
<g>
</g>
<g>
</g>
<g>
</g>
<g>
</g>
<g>
</g>
<g>
</g>
<g>
</g>
<g>
</g>
<g>
</g>
<g>
</g>
<g>
</g>
<g>
</g>
<g>
</g>
<g>
</g>
<g>
</g>
</svg>
